<?xml version="1.0" encoding="UTF-8"?>
<svg id="Capa_1" xmlns="http://www.w3.org/2000/svg" version="1.1" viewBox="0 0 400 400">
  <!-- Generator: Adobe Illustrator 29.8.2, SVG Export Plug-In . SVG Version: 2.1.1 Build 3)  -->
  <defs>
    <style>
      .st0 {
        fill: #606060;
      }
    </style>
  </defs>
  <g id="_x37_q2GeL">
    <g>
      <path class="st0" d="M243.9,229.2c2.8,2.9,7.8,6.7,8.4,10.7,1.1,8-4.2,13.3-12.2,12.2-5.1-.7-10.4-9.1-14.5-12-18.3,16-42.1,26.7-66.3,29.8C57.5,283.3-19.3,179.6,24.4,86.3,66.2-3.1,190.2-14.1,247.4,66.5c33.9,47.9,31.6,114.5-7.1,158.9l.2.7c1.3.9,2.4,2,3.4,3.1ZM250.7,141.5c0-60.2-48.8-109.1-109.1-109.1s-109.1,48.8-109.1,109.1,48.8,109.1,109.1,109.1,109.1-48.8,109.1-109.1Z"/>
      <path class="st0" d="M383,381.9c-5.9,6.6-16.1,7.7-23.8,3.7-33.9-32.2-66.3-66-99.6-98.9-13.9-18.9,9.4-41.4,27.8-26.8l96.3,96.4c6.2,7.6,5.9,18.3-.7,25.6Z"/>
      <path class="st0" d="M138.2,50.8c11.2-.4,23.6,1.8,34.2,5.6,4.4,1.6,19.5,8.6,21.4,12.4,2.1,4.1-.4,9.2-5.2,9.6-3.6.3-11.3-5.8-15.2-7.5-27.6-12.8-57.9-8.1-81.5,10.5-3.9,3.1-7.3,9-12.9,6.1-4.1-2.1-4.4-6.8-1.8-10.3,1.7-2.3,8.4-7.5,10.9-9.4,14.3-10.4,32.3-16.5,50.1-17Z"/>
      <path class="st0" d="M218.8,110.7c7.5-1.5,8.4,5,9.6,10.4,1.1,4.9,2.7,13.9,2,18.6-.9,6.1-9.8,7.1-12.2,1.7-1.2-2.8-.8-8.3-1.3-11.7-.5-3.5-2.8-9.9-2.8-12.6,0-2.6,2-5.9,4.7-6.4Z"/>
    </g>
  </g>
</svg>