<?xml version="1.0" encoding="UTF-8"?>
<svg id="Capa_1" xmlns="http://www.w3.org/2000/svg" version="1.1" viewBox="0 0 134.5 130.1">
  <!-- Generator: Adobe Illustrator 29.8.2, SVG Export Plug-In . SVG Version: 2.1.1 Build 3)  -->
  <g>
    <path d="M45,81.7l1.8,10h71.9c3.9-.6,4.8,5.1,1.2,5.6H44.4c-2.8,0-2.8-2.7-3.2-4.7-5.3-23.5-7.4-48.4-12.7-71.9l-4.5-6.7c-5.3-.6-11.5.5-16.7,0s-4-5.3-.4-5.6,14.2-.4,18.8,0,1.3,0,1.9.5c1.4.9,4.7,8.4,6.3,10,.6,1.3.7,7.5,1.8,7.8h86.6c6.7.9,8,3.9,7.8,10.3-.5,12.2-3.2,25.1-3.7,37.5-.3,2-1.1,4.5-2.7,5.8s-2.5,1.6-2.7,1.6H45ZM53,32.2h-16.8l2,11.2h14.8v-11.2ZM75.4,32.2h-17.2v11.2h17.2v-11.2ZM98.2,32.2h-17.2v11.2h17.2v-11.2ZM123.1,32.2h-19.4v11.2h20c.1-2.1,2.1-10.7-.6-11.2ZM53,49h-14l2,10.8h12v-10.8ZM75.4,49h-17.2v10.8h17.2v-10.8ZM98.2,49h-17.2v10.8h17.2v-10.8ZM123.3,49h-19.6v10.8h18.2c1.2-3.2.7-7.3,1.4-10.8ZM53,65.3h-10.8c0,1.3,1.6,11.2,2.2,11.2h8s.6-.6.6-.6v-10.6ZM75.4,65.3h-17.2v11.2h17.2v-11.2ZM98.2,65.3h-17.2v11.2h17.2v-11.2ZM121.7,65.3h-18v11.2h15c3,0,2.4-9.1,3-11.2Z"/>
    <path d="M112.3,111.7c0,5.8-4.7,10.5-10.5,10.5s-10.5-4.7-10.5-10.5,4.7-10.5,10.5-10.5,10.5,4.7,10.5,10.5ZM106.6,111.7c0-2.7-2.2-5-5-5s-5,2.2-5,5,2.2,5,5,5,5-2.2,5-5Z"/>
    <path d="M65.8,111.7c0,5.8-4.7,10.5-10.5,10.5s-10.5-4.7-10.5-10.5,4.7-10.5,10.5-10.5,10.5,4.7,10.5,10.5ZM60.2,111.7c0-2.7-2.2-4.9-4.9-4.9s-4.9,2.2-4.9,4.9,2.2,4.9,4.9,4.9,4.9-2.2,4.9-4.9Z"/>
  </g>
  <path d="M-20.8-145.2c.6.3.6.7,0,1v-1Z"/>
</svg>