<?xml version="1.0" encoding="UTF-8"?>
<svg id="Capa_1" xmlns="http://www.w3.org/2000/svg" version="1.1" viewBox="0 0 400 400">
  <!-- Generator: Adobe Illustrator 29.8.2, SVG Export Plug-In . SVG Version: 2.1.1 Build 3)  -->
  <defs>
    <style>
      .st0 {
        fill: #606060;
      }
    </style>
  </defs>
  <path class="st0" d="M292.4,367.4H107.6c-54.9,0-99.6-44.7-99.6-99.6v-135.7c0-54.9,44.7-99.6,99.6-99.6h184.7c54.9,0,99.6,44.7,99.6,99.6v135.7c0,54.9-44.7,99.6-99.6,99.6ZM107.6,56.1c-42,0-76.1,34.1-76.1,76.1v135.7c0,42,34.1,76.1,76.1,76.1h184.7c42,0,76.1-34.1,76.1-76.1v-135.7c0-42-34.1-76.1-76.1-76.1H107.6Z"/>
  <path class="st0" d="M194,188.2c-48.2,0-87.4-39.2-87.4-87.4h23.5c0,35.2,28.7,63.9,63.9,63.9s63.9-28.7,63.9-63.9h23.5c0,48.2-39.2,87.4-87.4,87.4Z"/>
</svg>