<?xml version="1.0" encoding="UTF-8"?>
<svg id="Capa_1" xmlns="http://www.w3.org/2000/svg" version="1.1" viewBox="0 0 400 400">
  <!-- Generator: Adobe Illustrator 29.8.2, SVG Export Plug-In . SVG Version: 2.1.1 Build 3)  -->
  <defs>
    <style>
      .st0 {
        fill: #606060;
      }
    </style>
  </defs>
  <path class="st0" d="M206.7,70.4c35-62.6,128.1-61.8,167.4-1.6,63.7,97.3-28,175.4-93.1,236.7-9.8,9.3-75.5,71.4-80.8,70.9-7.4-1.8-12.5-7.1-18.3-11.6-36.7-28.4-148.7-136.9-165.6-175.7C-38.8,62.6,109.4-38.9,199.5,70.3h7.2ZM94.7,246.8c31.7,33,73.8,61,104.6,95.6,47.6-53.1,169.6-128,169.6-205.2,0-67.2-66-113.7-125.1-71.8-16.1,11.4-32,49.8-44.5,49.8-7.9,0-29-37.7-41.9-47.4-45.9-34.9-109.5-14.1-121.6,41.9-13.5,62.6,19.3,95.8,58.9,137Z"/>
</svg>