<?xml version="1.0" encoding="UTF-8"?>
<svg id="Capa_1" xmlns="http://www.w3.org/2000/svg" version="1.1" viewBox="0 0 150.8 130.1">
  <!-- Generator: Adobe Illustrator 29.8.2, SVG Export Plug-In . SVG Version: 2.1.1 Build 3)  -->
  <path d="M74.3,128.1l-2.3-2.7c-7.8-9.2-17.5-16.5-27.8-24.3-2.2-1.7-4.4-3.3-6.6-5-9.7-7.4-20.5-16.4-26.8-29.5s-6.7-26.3-1.3-39.4C16.5,10.3,35.6.1,52.1,4.6c11.1,3,18,10.8,22.8,17.2.2.2.3.4.5.6.9-1.3,1.9-2.5,2.9-3.7,10.9-12.8,22.6-17.4,35.8-14.2,15.9,3.9,26.2,14.5,29.7,30.7,3.6,16.6-.8,32-12.7,44.4-6.2,6.4-13.2,12.1-20.1,17.6-3,2.4-6.1,4.9-9.1,7.4-5.7,4.8-11.3,9.6-17.1,14.5l-10.5,8.9h0ZM44,10.5c-11.5,0-23.2,7.7-28,19.4-4.6,11.2-4.2,22.5,1.2,33.7,5.6,11.7,15.3,19.7,24.7,26.9,2.2,1.7,4.4,3.3,6.5,4.9,9.3,6.9,18.8,14.1,26.7,22.7l5.2-4.4c5.7-4.9,11.4-9.7,17.1-14.5,3-2.6,6.2-5.1,9.2-7.5,6.6-5.3,13.5-10.9,19.4-17,10.2-10.7,14-23.8,10.9-38.1-2.9-13.6-11.2-22.2-24.5-25.4-10.7-2.6-19.5,1.1-28.8,12-1.2,1.5-2.4,3.1-3.6,4.8-.6.8-1.2,1.7-1.9,2.6l-2.9,3.9-2.8-4c-.4-.6-.8-1.1-1.1-1.7-.7-1.1-1.3-2-2-2.8-6.1-8.2-12-12.7-19-14.6-2.1-.6-4.2-.8-6.3-.8h0Z"/>
</svg>