<?xml version="1.0" encoding="UTF-8"?>
<svg id="Capa_1" xmlns="http://www.w3.org/2000/svg" version="1.1" viewBox="0 0 200 130.1">
  <!-- Generator: Adobe Illustrator 29.8.2, SVG Export Plug-In . SVG Version: 2.1.1 Build 3)  -->
  <path d="M100.2,9.5c39.8,1.4,71.1,18,93,51.8,1.8,2.8,1.9,4.9,0,7.7-23.9,36.3-57.7,53.9-101,51.3-36.9-2.2-65.2-20-85.4-50.9-1.9-2.9-2.1-5.1-.1-8.1C28.8,27.6,60.1,10.8,100.2,9.5ZM100.1,114.1c35.9-1.1,64.4-15.7,85.1-45.2,1.8-2.6,2-4.5,0-7.3C145.1,1.3,54,1.7,14.3,62.3c-1.5,2.4-1.4,4,.1,6.2,20.8,29.9,49.5,44.5,85.6,45.6Z"/>
  <path d="M140,64.9c.3,21.9-17.3,40.1-39.2,40.4-22.2.4-40.4-17.1-40.8-39.3-.4-22.1,17.2-40.5,39.2-40.9,22.3-.4,40.4,17.3,40.8,39.7ZM100.6,32.1c-18.1-.4-33.5,14.2-33.8,32.1-.4,18.8,14.3,34.1,33,34.3,17.8.2,33-14.4,33.4-32.2.4-18.6-14-33.8-32.6-34.2Z"/>
  <path d="M80.8,63.5c11.6,1.3,16.8-4.9,14.2-16.7,6.5-2.9,15.3-.2,20.5,6.3,5.5,6.9,5.5,17,0,24.2-5.5,7.1-15.2,9.5-23.4,6-7.7-3.4-12.6-11.8-11.3-19.8Z"/>
</svg>