<?xml version="1.0" encoding="UTF-8"?>
<svg id="Capa_1" xmlns="http://www.w3.org/2000/svg" version="1.1" viewBox="0 0 400 400">
  <!-- Generator: Adobe Illustrator 29.8.2, SVG Export Plug-In . SVG Version: 2.1.1 Build 3)  -->
  <defs>
    <style>
      .st0 {
        fill: #606060;
      }
    </style>
  </defs>
  <path class="st0" d="M201.6,228.1c-54.3,0-98.6-44.2-98.6-98.6S147.2,30.9,201.6,30.9s98.6,44.2,98.6,98.6-44.2,98.6-98.6,98.6ZM201.6,54.3c-41.5,0-75.2,33.7-75.2,75.2s33.7,75.2,75.2,75.2,75.2-33.7,75.2-75.2-33.7-75.2-75.2-75.2Z"/>
  <path class="st0" d="M400.4,369.1h-23.4c0-44.6-36.3-80.9-80.9-80.9H103.9c-44.6,0-80.9,36.3-80.9,80.9H-.4c0-57.5,46.8-104.3,104.3-104.3h192.2c57.5,0,104.3,46.8,104.3,104.3Z"/>
</svg>